<svg length='7 0px' width='70px'  fill="#ce9b19" xmlns="http://www.w3.org/2000/svg" viewBox="0 0 128 128" x="0px" y="0px"><title>Ex-Post-Facto</title><g data-name="Layer 15"><ellipse cx="64.00888" cy="81.34009" rx="5.79537" ry="5.73018"></ellipse><path d="M85.57334,70.68269a1.77565,1.77565,0,0,0-.10112-.37344c-.00919-.02339-.01521-.0471-.0254-.07018a1.76377,1.76377,0,0,0-.23557-.38643c-.00734-.00924-.01056-.02059-.01811-.02968l-2.08856-2.5241a1.798,1.798,0,0,0-3.17508.975,1.78213,1.78213,0,0,0,.14532.89727H75.33162a15.31072,15.31072,0,0,0,4.728-11.05323,15.63215,15.63215,0,0,0-31.26164,0A15.873,15.873,0,0,0,53.3012,69.17113H45.11762a1.79623,1.79623,0,1,0,0,3.59246H59.04474a1.796,1.796,0,0,0,.69112-3.4539A12.19317,12.19317,0,0,1,52.39294,58.1179a12.03727,12.03727,0,1,1,16.07313,11.1542,1.79609,1.79609,0,0,0,.5948,3.49149h10.8992a1.7974,1.7974,0,0,0,3.03383,1.792l2.15024-2.38638a1.7896,1.7896,0,0,0,.26075-.39293c.00808-.01584.02144-.02772.029-.04388.00787-.01669.00855-.03512.01584-.052a1.768,1.768,0,0,0,.1299-.42588l.00312-.01262a1.81567,1.81567,0,0,0,.01927-.36916c-.00158-.02973-.01019-.05766-.01315-.087C85.58538,70.7508,85.57894,70.71733,85.57334,70.68269Z"></path><path d="M59.85652,21.18a6.34305,6.34305,0,0,0,1.97,1.15417,6.25615,6.25615,0,0,0,1.00943.27744l.0942.01468a6.01571,6.01571,0,0,0,2.13968,0l.09067-.01378a6.63941,6.63941,0,0,0,1.08853-.30585,6.50274,6.50274,0,0,0,1.01033-.48877,6.4112,6.4112,0,0,0,.88412-.63789,6.13948,6.13948,0,0,0,2.14506-4.639,6.28948,6.28948,0,0,0-12.57709,0A6.13948,6.13948,0,0,0,59.85652,21.18Z"></path><path d="M59.83518,104.37176a6.31557,6.31557,0,0,0,1.97624,1.168,6.36527,6.36527,0,0,0,1.10981.29608A6.29345,6.29345,0,0,0,64,105.933a6.81855,6.81855,0,0,0,1.16758-.11052,6.67452,6.67452,0,0,0,1.09656-.31028,6.4752,6.4752,0,0,0,1.01386-.495,6.361,6.361,0,0,0,.88681-.64544,6.14082,6.14082,0,0,0,2.12373-4.61995,6.28948,6.28948,0,0,0-12.57709,0A6.14082,6.14082,0,0,0,59.83518,104.37176Z"></path><path d="M69.17425,106.222l-.29856-.08523-.22215.15493c-.111.07725-.22569.1496-.33943.221-.08444.05238-.16792.103-.25325.15187-.11638.06659-.23282.13138-.3519.19221-.079.0404-.15815.07678-.279.1327l-.08882.04129c-.08887.04129-.17685.08259-.26836.11945-.19818.08032-.3981.15356-.59982.21751-.06395.02044-.12885.03728-.19459.05413l-.1111.02978c-.135.0377-.2692.07324-.40338.10345-.10044.0217-.20082.0404-.30569.059-.15192.02793-.30569.05059-.53312.07857l-.18487.02128a8.251,8.251,0,0,1-1.48125,0l-.25769-.0302c-.15372-.01906-.30749-.04172-.4621-.07013-.10218-.01817-.20256-.03686-.3012-.05856-.136-.0302-.27015-.06574-.40607-.10345l-.1102-.02978c-.06574-.01685-.13064-.03369-.19285-.05323-.20346-.06485-.40338-.13809-.60156-.2184-.09151-.03686-.17949-.07815-.26836-.11945l-.13059-.06083c-.0791-.03638-.15821-.07277-.23641-.11274-.11992-.06125-.23636-.126-.35184-.19221-.08623-.04927-.16972-.09991-.25415-.15229-.11374-.07145-.22838-.14379-.3972-.2588l-.22215-.15271-.24079.12077a10.72586,10.72586,0,0,0-5.94911,9.63979v1.77838H75.12336v-1.77838A10.72586,10.72586,0,0,0,69.17425,106.222Z"></path><path d="M27.4879,65.73793l-.2683-.10033-.22041.147a8.22023,8.22023,0,0,1-.99786.58952l.20425.406-.00005.00005-.32771-.347a8.16337,8.16337,0,0,1-2.17616.68763L23.476,67.155a7.19618,7.19618,0,0,1-2.25521,0l-.22838-.03464a8.14068,8.14068,0,0,1-2.17083-.68584l-.19633.40956h-.00005l.06664-.47129a8.594,8.594,0,0,1-1.0174-.60151l-.22395-.15625-.24259.12293A10.85251,10.85251,0,0,0,11.225,75.47008v1.66073H33.47081V75.47008A10.85255,10.85255,0,0,0,27.4879,65.73793Z"></path><path d="M18.204,63.88055a6.32112,6.32112,0,0,0,1.97,1.15512,6.38932,6.38932,0,0,0,1.01207.27786l.09331.0142a6.011,6.011,0,0,0,2.13883,0l.09151-.01373a6.70672,6.70672,0,0,0,1.08763-.30543,6.47337,6.47337,0,0,0,1.00679-.48745,6.3182,6.3182,0,0,0,.88861-.641,6.13745,6.13745,0,0,0,2.14416-4.63769,6.28993,6.28993,0,0,0-12.578,0A6.13538,6.13538,0,0,0,18.204,63.88055Z"></path><path d="M110.79216,65.73793l-.26925-.10741-.22305.15583a8.14708,8.14708,0,0,1-.99163.5864l.20341.40607v.00005l-.334-.34487a8.09274,8.09274,0,0,1-2.17257.68673l-.22574.03422a7.14278,7.14278,0,0,1-2.25521,0l-.22749-.03464a8.12147,8.12147,0,0,1-2.17437-.68763l-.24433.38712.12082-.44573a8.61408,8.61408,0,0,1-1.029-.60858l-.22125-.147-.23636.11939a10.85255,10.85255,0,0,0-5.98291,9.73215v1.66073H116.775V75.47008A10.85251,10.85251,0,0,0,110.79216,65.73793Z"></path><path d="M75.12336,32.76818a10.85232,10.85232,0,0,0-5.98285-9.73167l-.27015-.107-.22305.15578a8.22266,8.22266,0,0,1-.9881.58466l-.13238.06215a8.10579,8.10579,0,0,1-2.17083.68673l-.22838.03464a7.16961,7.16961,0,0,1-2.25521,0l-.22838-.03464a8.20223,8.20223,0,0,1-2.20991-.705l-.08887-.04214a8.65966,8.65966,0,0,1-1.0192-.602l-.22395-.15625-.24259.123a10.85232,10.85232,0,0,0-5.98285,9.73167v1.66115H75.12336Z"></path><path d="M101.50727,63.88013v.00042a6.34034,6.34034,0,0,0,1.97,1.15512,6.34968,6.34968,0,0,0,1.013.27786l.09151.0142a6.01066,6.01066,0,0,0,2.13614.00048l.096-.0142a6.76748,6.76748,0,0,0,1.08853-.30585,6.55821,6.55821,0,0,0,1.00763-.48792,6.31607,6.31607,0,0,0,.88592-.63921,6.13711,6.13711,0,0,0,2.14506-4.63859,6.28993,6.28993,0,0,0-12.578,0A6.13745,6.13745,0,0,0,101.50727,63.88013Z"></path></g></svg>
